<?xml version="1.0" standalone="no"?>
<!DOCTYPE svg PUBLIC "-//W3C//DTD SVG 20010904//EN"
 "http://www.w3.org/TR/2001/REC-SVG-20010904/DTD/svg10.dtd">
<svg version="1.0" xmlns="http://www.w3.org/2000/svg"
 width="500.000000pt" height="500.000000pt" viewBox="0 0 500.000000 500.000000"
 preserveAspectRatio="xMidYMid meet">
<metadata>
Created by potrace 1.11, written by Peter Selinger 2001-2013
</metadata>
<g transform="translate(0.000000,500.000000) scale(0.100000,-0.100000)"
fill="#000000" stroke="none">
<path d="M974 3992 c14 -76 92 -365 108 -398 7 -14 11 -416 12 -1140 l1 -1119
190 0 190 0 2 120 c2 156 12 1312 13 1520 l1 160 62 -66 c34 -36 112 -118 172
-183 173 -186 182 -196 274 -291 l87 -91 -164 -204 -164 -205 6 -43 c13 -94
82 -172 174 -193 31 -7 39 -3 100 51 91 78 131 116 237 220 l90 88 105 -100
c153 -145 262 -243 284 -255 27 -15 94 6 135 43 48 42 82 106 83 153 0 44 -6
54 -216 309 l-109 133 36 37 c53 56 138 145 252 267 56 61 124 133 150 160 25
28 69 76 97 108 28 31 54 57 57 57 3 0 6 -401 6 -891 0 -490 2 -894 5 -898 3
-4 89 -7 193 -6 l187 0 0 1112 c0 1075 1 1113 19 1145 20 35 71 221 71 260 0
59 -77 125 -133 114 -40 -8 -181 -58 -217 -76 -28 -14 -213 -200 -364 -365
-15 -16 -71 -77 -125 -135 -162 -175 -332 -361 -406 -445 -38 -44 -78 -89 -88
-100 -18 -20 -18 -19 -60 25 -24 25 -106 115 -182 200 -77 85 -149 164 -160
176 -20 21 -192 206 -255 274 -78 85 -317 336 -338 354 -12 12 -32 29 -42 39
-11 9 -33 16 -48 15 -15 -1 -65 10 -112 25 -47 14 -116 35 -153 46 l-68 19 5
-26z"/>
</g>
</svg>
